<?xml version="1.0" encoding="UTF-8" standalone="no"?>
<svg width="12px" height="15px" viewBox="0 0 12 15" version="1.1" xmlns="http://www.w3.org/2000/svg" xmlns:xlink="http://www.w3.org/1999/xlink" xmlns:sketch="http://www.bohemiancoding.com/sketch/ns">
    <title>Slice 1</title>
    <description>Created with Sketch (http://www.bohemiancoding.com/sketch)</description>
    <defs></defs>
    <g id="Page-1" stroke="none" stroke-width="1" fill="none" fill-rule="evenodd" sketch:type="MSPage">
        <path d="M0.38,0.72 L0.38,15 L3.52,15 L3.52,9.88 L6.82,9.88 C7.7133378,9.88 8.4733302,9.7500013 9.1,9.49 C9.7266698,9.2299987 10.2366647,8.8866688 10.63,8.46 C11.0233353,8.0333312 11.3099991,7.5433361 11.49,6.99 C11.6700009,6.4366639 11.76,5.8733362 11.76,5.3 C11.76,4.7133304 11.6700009,4.1466694 11.49,3.6 C11.3099991,3.0533306 11.0233353,2.5666688 10.63,2.14 C10.2366647,1.7133312 9.7266698,1.3700013 9.1,1.11 C8.4733302,0.8499987 7.7133378,0.72 6.82,0.72 L0.38,0.72 Z M3.52,7.44 L3.52,3.16 L5.96,3.16 C6.3200018,3.16 6.666665,3.1866664 7,3.24 C7.333335,3.2933336 7.6266654,3.3966659 7.88,3.55 C8.1333346,3.7033341 8.3366659,3.9199986 8.49,4.2 C8.6433341,4.4800014 8.72,4.8466644 8.72,5.3 C8.72,5.7533356 8.6433341,6.1199986 8.49,6.4 C8.3366659,6.6800014 8.1333346,6.8966659 7.88,7.05 C7.6266654,7.2033341 7.333335,7.3066664 7,7.36 C6.666665,7.4133336 6.3200018,7.44 5.96,7.44 L3.52,7.44 Z M3.52,7.44" id="P" fill="#000000" sketch:type="MSShapeGroup"></path>
    </g>
</svg>