<?xml version="1.0" encoding="utf-8"?>
<!-- Generator: Adobe Illustrator 16.0.4, SVG Export Plug-In . SVG Version: 6.00 Build 0)  -->
<!DOCTYPE svg PUBLIC "-//W3C//DTD SVG 1.1//EN" "http://www.w3.org/Graphics/SVG/1.1/DTD/svg11.dtd">
<svg version="1.1"
	 id="svg2" xmlns:dc="http://purl.org/dc/elements/1.1/" xmlns:cc="http://creativecommons.org/ns#" xmlns:rdf="http://www.w3.org/1999/02/22-rdf-syntax-ns#" xmlns:svg="http://www.w3.org/2000/svg" xmlns:sodipodi="http://sodipodi.sourceforge.net/DTD/sodipodi-0.dtd" xmlns:inkscape="http://www.inkscape.org/namespaces/inkscape" inkscape:export-filename="C:\Users\peter\OSM\Entwürfe\amenity_playground.png" inkscape:output_extension="org.inkscape.output.svg.inkscape" sodipodi:docname="amenity_playground.svg" inkscape:version="0.47 r22583" sodipodi:version="0.32" inkscape:export-ydpi="2.4790845" inkscape:export-xdpi="2.4790845"
	 xmlns="http://www.w3.org/2000/svg" xmlns:xlink="http://www.w3.org/1999/xlink" x="0px" y="0px" width="580px" height="580px"
	 viewBox="0 0 580 580" enable-background="new 0 0 580 580" xml:space="preserve">
<sodipodi:namedview  inkscape:cy="290" inkscape:cx="311.82729" inkscape:zoom="0.57" showgrid="false" pagecolor="#ffffff" bordercolor="#666666" guidetolerance="10.0" objecttolerance="10.0" gridtolerance="10.0" borderopacity="1.0" id="base" inkscape:window-maximized="0" inkscape:current-layer="svg2" inkscape:window-y="24" inkscape:window-x="0" inkscape:pageopacity="0.0" inkscape:pageshadow="2" inkscape:window-width="1151" inkscape:window-height="888">
	</sodipodi:namedview>
<defs>
	
	
		<inkscape:perspective  inkscape:vp_z="580 : 290 : 1" inkscape:vp_y="0 : 1000 : 0" inkscape:vp_x="0 : 290 : 1" sodipodi:type="inkscape:persp3d" id="perspective12" inkscape:persp3d-origin="290 : 193.33333 : 1">
		</inkscape:perspective>
	
		<inkscape:perspective  inkscape:vp_z="32 : 16 : 1" inkscape:vp_y="0 : 1000 : 0" inkscape:vp_x="0 : 16 : 1" sodipodi:type="inkscape:persp3d" id="perspective2539" inkscape:persp3d-origin="16 : 10.666667 : 1">
		</inkscape:perspective>
	
		<inkscape:perspective  inkscape:vp_z="1 : 0.5 : 1" inkscape:vp_y="0 : 1000 : 0" inkscape:vp_x="0 : 0.5 : 1" sodipodi:type="inkscape:persp3d" id="perspective18697" inkscape:persp3d-origin="0.5 : 0.33333333 : 1">
		</inkscape:perspective>
	
		<inkscape:perspective  inkscape:vp_z="1 : 0.5 : 1" inkscape:vp_y="0 : 1000 : 0" inkscape:vp_x="0 : 0.5 : 1" sodipodi:type="inkscape:persp3d" id="perspective18782" inkscape:persp3d-origin="0.5 : 0.33333333 : 1">
		</inkscape:perspective>
	
		<inkscape:perspective  inkscape:vp_z="1 : 0.5 : 1" inkscape:vp_y="0 : 1000 : 0" inkscape:vp_x="0 : 0.5 : 1" sodipodi:type="inkscape:persp3d" id="perspective2832" inkscape:persp3d-origin="0.5 : 0.33333333 : 1">
		</inkscape:perspective>
	
		<inkscape:perspective  inkscape:vp_z="1 : 0.5 : 1" inkscape:vp_y="0 : 1000 : 0" inkscape:vp_x="0 : 0.5 : 1" sodipodi:type="inkscape:persp3d" id="perspective2832-1" inkscape:persp3d-origin="0.5 : 0.33333333 : 1">
		</inkscape:perspective>
</defs>
<g>
	<path d="M543.692,350.874l-6.986-1.379c-1.233-9.529-2.828-20.657-4.77-31.843c-6.92-39.865-14.778-61.403-23.355-64.015
		c-9.301-2.833-26.236,12.96-50.296,46.91c-7.464,10.533-14.389,21.121-19.748,29.579l-287.133-56.651
		c-2.188-33.883-8.43-96.635-24.749-100.03c-0.481-0.1-0.995-0.151-1.524-0.151c-17.179,0-57.656,54.351-75.825,80.037l-1.544-0.305
		c-9.353-1.849-18.432,4.241-20.277,13.594c-1.846,9.353,4.241,18.432,13.594,20.277l67.493,13.316
		c-8.158,11.329-20.129,27.718-30.53,41.019c-3.949,5.051-5.048,10.339-3.015,14.509c1.623,3.33,5.066,5.318,9.21,5.318
		c4.558,0,9.563-2.383,14.093-6.708c17.495-16.704,34.109-35.565,44.174-47.443l143.589,28.331l-46.001,96.622H344.68
		l-44.698-93.883l130.814,25.81c3.156,15.294,8.633,39.442,15.865,62.166c3.304,10.383,9.639,14.082,14.465,14.081
		c2.758,0,5.271-1.171,7.073-3.296c2.497-2.942,3.403-7.401,2.554-12.558c-2.976-18.062-5.831-40.193-7.525-53.994l73.781,14.557
		c1.129,0.223,2.252,0.33,3.36,0.33c8.077,0,15.294-5.699,16.917-13.924C559.132,361.798,553.045,352.72,543.692,350.874z"/>
	<path d="M143.849,171.547c5.56,3.06,11.862,4.677,18.227,4.677c0,0,0,0,0.001,0c12.458,0,24.044-6.218,30.233-16.223
		c4.601-7.407,5.92-16.126,3.715-24.552c-2.36-9.02-8.383-16.587-16.958-21.306c-5.561-3.06-11.863-4.677-18.227-4.677
		c-12.459,0-24.045,6.218-30.234,16.223c-4.601,7.407-5.92,16.126-3.715,24.552C129.251,159.261,135.274,166.828,143.849,171.547z"
		/>
	<path d="M494.31,243.719h0.095c9.786-0.025,18.699-3.772,25.098-10.552c5.977-6.333,9.002-14.618,8.519-23.321
		c-0.99-18.414-17.537-33.395-36.98-33.395c-9.786,0.024-18.698,3.771-25.097,10.551c-5.977,6.333-9.002,14.618-8.519,23.321
		C458.414,228.738,474.96,243.719,494.31,243.719z M494.31,240.767L494.31,240.767v0.002V240.767z"/>
</g>
</svg>
